<svg id="visual" viewBox="0 0 900 600" width="900" height="600" xmlns="http://www.w3.org/2000/svg" xmlns:xlink="http://www.w3.org/1999/xlink" version="1.1"><path d="M0 340L6.5 353.2C13 366.3 26 392.7 39 378.2C52 363.7 65 308.3 78 282.2C91 256 104 259 117.2 276C130.3 293 143.7 324 156.8 331.8C170 339.7 183 324.3 196 324.5C209 324.7 222 340.3 235 330C248 319.7 261 283.3 274 297C287 310.7 300 374.3 313 401.7C326 429 339 420 352 413.3C365 406.7 378 402.3 391 409.3C404 416.3 417 434.7 430.2 444.8C443.3 455 456.7 457 469.8 435.8C483 414.7 496 370.3 509 372.2C522 374 535 422 548 436C561 450 574 430 587 418.5C600 407 613 404 626 386.8C639 369.7 652 338.3 665 343.7C678 349 691 391 704 398.2C717 405.3 730 377.7 743.2 363.8C756.3 350 769.7 350 782.8 351.7C796 353.3 809 356.7 822 337.3C835 318 848 276 861 271.7C874 267.3 887 300.7 893.5 317.3L900 334L900 601L893.5 601C887 601 874 601 861 601C848 601 835 601 822 601C809 601 796 601 782.8 601C769.7 601 756.3 601 743.2 601C730 601 717 601 704 601C691 601 678 601 665 601C652 601 639 601 626 601C613 601 600 601 587 601C574 601 561 601 548 601C535 601 522 601 509 601C496 601 483 601 469.8 601C456.7 601 443.3 601 430.2 601C417 601 404 601 391 601C378 601 365 601 352 601C339 601 326 601 313 601C300 601 287 601 274 601C261 601 248 601 235 601C222 601 209 601 196 601C183 601 170 601 156.8 601C143.7 601 130.3 601 117.2 601C104 601 91 601 78 601C65 601 52 601 39 601C26 601 13 601 6.5 601L0 601Z" fill="#009473"></path><path d="M0 437L6.5 424.7C13 412.3 26 387.7 39 389.5C52 391.3 65 419.7 78 415.7C91 411.7 104 375.3 117.2 364.3C130.3 353.3 143.7 367.7 156.8 379.7C170 391.7 183 401.3 196 387.3C209 373.3 222 335.7 235 324.2C248 312.7 261 327.3 274 325.3C287 323.3 300 304.7 313 314.7C326 324.7 339 363.3 352 395.2C365 427 378 452 391 445.7C404 439.3 417 401.7 430.2 386.3C443.3 371 456.7 378 469.8 369.5C483 361 496 337 509 354.3C522 371.7 535 430.3 548 450C561 469.7 574 450.3 587 418C600 385.7 613 340.3 626 325.2C639 310 652 325 665 352.7C678 380.3 691 420.7 704 434.3C717 448 730 435 743.2 406C756.3 377 769.7 332 782.8 330.5C796 329 809 371 822 379C835 387 848 361 861 336.7C874 312.3 887 289.7 893.5 278.3L900 267L900 601L893.5 601C887 601 874 601 861 601C848 601 835 601 822 601C809 601 796 601 782.8 601C769.7 601 756.3 601 743.2 601C730 601 717 601 704 601C691 601 678 601 665 601C652 601 639 601 626 601C613 601 600 601 587 601C574 601 561 601 548 601C535 601 522 601 509 601C496 601 483 601 469.8 601C456.7 601 443.3 601 430.2 601C417 601 404 601 391 601C378 601 365 601 352 601C339 601 326 601 313 601C300 601 287 601 274 601C261 601 248 601 235 601C222 601 209 601 196 601C183 601 170 601 156.8 601C143.7 601 130.3 601 117.2 601C104 601 91 601 78 601C65 601 52 601 39 601C26 601 13 601 6.5 601L0 601Z" fill="#009b90"></path><path d="M0 383L6.5 402.3C13 421.7 26 460.3 39 449.5C52 438.7 65 378.3 78 376C91 373.7 104 429.3 117.2 438.8C130.3 448.3 143.7 411.7 156.8 389.3C170 367 183 359 196 352.7C209 346.3 222 341.7 235 349C248 356.3 261 375.7 274 388.8C287 402 300 409 313 419.3C326 429.7 339 443.3 352 427.2C365 411 378 365 391 363C404 361 417 403 430.2 427.7C443.3 452.3 456.7 459.7 469.8 459.7C483 459.7 496 452.3 509 431.3C522 410.3 535 375.7 548 375.3C561 375 574 409 587 411.8C600 414.7 613 386.3 626 370.8C639 355.3 652 352.7 665 350.5C678 348.3 691 346.7 704 371.7C717 396.7 730 448.3 743.2 462.8C756.3 477.3 769.7 454.7 782.8 440.8C796 427 809 422 822 410C835 398 848 379 861 382C874 385 887 410 893.5 422.5L900 435L900 601L893.5 601C887 601 874 601 861 601C848 601 835 601 822 601C809 601 796 601 782.8 601C769.7 601 756.3 601 743.2 601C730 601 717 601 704 601C691 601 678 601 665 601C652 601 639 601 626 601C613 601 600 601 587 601C574 601 561 601 548 601C535 601 522 601 509 601C496 601 483 601 469.8 601C456.7 601 443.3 601 430.2 601C417 601 404 601 391 601C378 601 365 601 352 601C339 601 326 601 313 601C300 601 287 601 274 601C261 601 248 601 235 601C222 601 209 601 196 601C183 601 170 601 156.8 601C143.7 601 130.3 601 117.2 601C104 601 91 601 78 601C65 601 52 601 39 601C26 601 13 601 6.5 601L0 601Z" fill="#00a1ab"></path><path d="M0 491L6.5 484.5C13 478 26 465 39 470C52 475 65 498 78 500.5C91 503 104 485 117.2 466.8C130.3 448.7 143.7 430.3 156.8 416.3C170 402.3 183 392.7 196 411.8C209 431 222 479 235 483.2C248 487.3 261 447.7 274 433.2C287 418.7 300 429.3 313 447.2C326 465 339 490 352 491.8C365 493.7 378 472.3 391 455.8C404 439.3 417 427.7 430.2 435C443.3 442.3 456.7 468.7 469.8 465.2C483 461.7 496 428.3 509 410.8C522 393.3 535 391.7 548 387.8C561 384 574 378 587 379.5C600 381 613 390 626 393C639 396 652 393 665 395.2C678 397.3 691 404.7 704 401.7C717 398.7 730 385.3 743.2 376.7C756.3 368 769.7 364 782.8 383.3C796 402.7 809 445.3 822 473.2C835 501 848 514 861 503.2C874 492.3 887 457.7 893.5 440.3L900 423L900 601L893.5 601C887 601 874 601 861 601C848 601 835 601 822 601C809 601 796 601 782.8 601C769.7 601 756.3 601 743.2 601C730 601 717 601 704 601C691 601 678 601 665 601C652 601 639 601 626 601C613 601 600 601 587 601C574 601 561 601 548 601C535 601 522 601 509 601C496 601 483 601 469.8 601C456.7 601 443.3 601 430.2 601C417 601 404 601 391 601C378 601 365 601 352 601C339 601 326 601 313 601C300 601 287 601 274 601C261 601 248 601 235 601C222 601 209 601 196 601C183 601 170 601 156.8 601C143.7 601 130.3 601 117.2 601C104 601 91 601 78 601C65 601 52 601 39 601C26 601 13 601 6.5 601L0 601Z" fill="#00a6c1"></path><path d="M0 426L6.5 432.8C13 439.7 26 453.3 39 460.7C52 468 65 469 78 468.8C91 468.7 104 467.3 117.2 476.7C130.3 486 143.7 506 156.8 498C170 490 183 454 196 450.2C209 446.3 222 474.7 235 494.7C248 514.7 261 526.3 274 515.8C287 505.3 300 472.7 313 472.5C326 472.3 339 504.7 352 509.3C365 514 378 491 391 478.8C404 466.7 417 465.3 430.2 472C443.3 478.7 456.7 493.3 469.8 499C483 504.7 496 501.3 509 490.3C522 479.3 535 460.7 548 457.2C561 453.7 574 465.3 587 481.2C600 497 613 517 626 509.7C639 502.3 652 467.7 665 466.8C678 466 691 499 704 501.3C717 503.7 730 475.3 743.2 471.3C756.3 467.3 769.7 487.7 782.8 500C796 512.3 809 516.7 822 515.3C835 514 848 507 861 508.5C874 510 887 520 893.5 525L900 530L900 601L893.5 601C887 601 874 601 861 601C848 601 835 601 822 601C809 601 796 601 782.8 601C769.7 601 756.3 601 743.2 601C730 601 717 601 704 601C691 601 678 601 665 601C652 601 639 601 626 601C613 601 600 601 587 601C574 601 561 601 548 601C535 601 522 601 509 601C496 601 483 601 469.8 601C456.7 601 443.3 601 430.2 601C417 601 404 601 391 601C378 601 365 601 352 601C339 601 326 601 313 601C300 601 287 601 274 601C261 601 248 601 235 601C222 601 209 601 196 601C183 601 170 601 156.8 601C143.7 601 130.3 601 117.2 601C104 601 91 601 78 601C65 601 52 601 39 601C26 601 13 601 6.5 601L0 601Z" fill="#00a9d5"></path><path d="M0 559L6.5 558.8C13 558.7 26 558.3 39 545.2C52 532 65 506 78 504.5C91 503 104 526 117.2 525.5C130.3 525 143.7 501 156.8 493.7C170 486.3 183 495.7 196 495C209 494.3 222 483.7 235 493.8C248 504 261 535 274 547.5C287 560 300 554 313 547.8C326 541.7 339 535.3 352 534.2C365 533 378 537 391 527.8C404 518.7 417 496.3 430.2 483.2C443.3 470 456.7 466 469.8 475.7C483 485.3 496 508.7 509 523.7C522 538.7 535 545.3 548 535.5C561 525.7 574 499.3 587 483.7C600 468 613 463 626 464.5C639 466 652 474 665 478.2C678 482.3 691 482.7 704 480.3C717 478 730 473 743.2 476.2C756.3 479.3 769.7 490.7 782.8 496.8C796 503 809 504 822 499.5C835 495 848 485 861 486.2C874 487.3 887 499.7 893.5 505.8L900 512L900 601L893.5 601C887 601 874 601 861 601C848 601 835 601 822 601C809 601 796 601 782.8 601C769.7 601 756.3 601 743.2 601C730 601 717 601 704 601C691 601 678 601 665 601C652 601 639 601 626 601C613 601 600 601 587 601C574 601 561 601 548 601C535 601 522 601 509 601C496 601 483 601 469.8 601C456.7 601 443.3 601 430.2 601C417 601 404 601 391 601C378 601 365 601 352 601C339 601 326 601 313 601C300 601 287 601 274 601C261 601 248 601 235 601C222 601 209 601 196 601C183 601 170 601 156.8 601C143.7 601 130.3 601 117.2 601C104 601 91 601 78 601C65 601 52 601 39 601C26 601 13 601 6.5 601L0 601Z" fill="#25ace8"></path><path d="M0 575L6.5 565.2C13 555.3 26 535.7 39 524C52 512.3 65 508.7 78 515.8C91 523 104 541 117.2 552.3C130.3 563.7 143.7 568.3 156.8 561.8C170 555.3 183 537.7 196 532.3C209 527 222 534 235 536C248 538 261 535 274 529.3C287 523.7 300 515.3 313 511C326 506.7 339 506.3 352 510.5C365 514.7 378 523.3 391 528C404 532.7 417 533.3 430.2 540.8C443.3 548.3 456.7 562.7 469.8 565.3C483 568 496 559 509 553.5C522 548 535 546 548 543.3C561 540.7 574 537.3 587 541.7C600 546 613 558 626 553.3C639 548.7 652 527.3 665 523.8C678 520.3 691 534.7 704 536.5C717 538.3 730 527.7 743.2 530.2C756.3 532.7 769.7 548.3 782.8 551.7C796 555 809 546 822 548.5C835 551 848 565 861 560.7C874 556.3 887 533.7 893.5 522.3L900 511L900 601L893.5 601C887 601 874 601 861 601C848 601 835 601 822 601C809 601 796 601 782.8 601C769.7 601 756.3 601 743.2 601C730 601 717 601 704 601C691 601 678 601 665 601C652 601 639 601 626 601C613 601 600 601 587 601C574 601 561 601 548 601C535 601 522 601 509 601C496 601 483 601 469.8 601C456.7 601 443.3 601 430.2 601C417 601 404 601 391 601C378 601 365 601 352 601C339 601 326 601 313 601C300 601 287 601 274 601C261 601 248 601 235 601C222 601 209 601 196 601C183 601 170 601 156.8 601C143.7 601 130.3 601 117.2 601C104 601 91 601 78 601C65 601 52 601 39 601C26 601 13 601 6.5 601L0 601Z" fill="#4facf7"></path></svg>